# xmcd
#
# Track frame offsets:
#	150
#	18259
#	33982
#	57030
#	75353
#	94081
#	110840
#	128268
#	148771
#	163050
#	178303
#	194420
#	213597
#	234753
#	257890
#	276571
#	290445
#	307387
#	320749
#
# Disc length: 4497 seconds
#
# Revision: 1
# Processed by: cddbd v1.5.2PL0 Copyright (c) Steve Scherf et al.
# Submitted via: audiograbber 1.83.01
#
DISCID=1c118f13
DTITLE=Alan Jackson - Genuine: The Alan Jackson Story CD3
DYEAR=2016
DGENRE=Country
TTITLE0=Where I Come From
TTITLE1=When Somebody Loves You
TTITLE2=Where Were You (When the World Stopped Turning)
TTITLE3=Drive (For Daddy Gene)
TTITLE4=Work In Progress
TTITLE5=That'd Be Alright
TTITLE6=It's Five O' Clock Somewhere
TTITLE7=Remember When
TTITLE8=Too Much of a Good Thing
TTITLE9=Monday Morning Church
TTITLE10=Like Red On a Rose
TTITLE11=A Woman's Love
TTITLE12=Small Town Southern Man
TTITLE13=Good Time
TTITLE14=Country Boy
TTITLE15=Sissy's Song
TTITLE16=As She's Walking Away
TTITLE17=Love Is Hard
TTITLE18=Ain't Just a Southern Thing
EXTD=
EXTT0=
EXTT1=
EXTT2=
EXTT3=
EXTT4=
EXTT5=
EXTT6=
EXTT7=
EXTT8=
EXTT9=
EXTT10=
EXTT11=
EXTT12=
EXTT13=
EXTT14=
EXTT15=
EXTT16=
EXTT17=
EXTT18=
PLAYORDER=
